<?xml version="1.0" encoding="UTF-8"?>
<svg xmlns="http://www.w3.org/2000/svg" xmlns:xlink="http://www.w3.org/1999/xlink" width="32px" height="32px" viewBox="0 0 32 32" version="1.1">
<g id="surface1">
<path style=" stroke:none;fill-rule:nonzero;fill:rgb(100%,100%,100%);fill-opacity:1;" d="M 21.738281 2.703125 C 22.335938 3.136719 22.554688 3.914062 22.285156 4.59375 L 18.363281 14.398438 L 25.601562 14.398438 C 26.273438 14.398438 26.875 14.820312 27.105469 15.453125 C 27.335938 16.089844 27.140625 16.800781 26.625 17.230469 L 12.226562 29.230469 C 11.660156 29.699219 10.855469 29.726562 10.261719 29.296875 C 9.664062 28.863281 9.445312 28.085938 9.714844 27.40625 L 13.636719 17.601562 L 6.398438 17.601562 C 5.726562 17.601562 5.125 17.179688 4.894531 16.546875 C 4.664062 15.910156 4.859375 15.199219 5.375 14.769531 L 19.773438 2.769531 C 20.339844 2.300781 21.144531 2.273438 21.738281 2.703125 Z M 21.738281 2.703125 "/>
</g>
</svg>
