<?xml version="1.0" encoding="UTF-8"?>
<svg xmlns="http://www.w3.org/2000/svg" xmlns:xlink="http://www.w3.org/1999/xlink" width="32px" height="32px" viewBox="0 0 32 32" version="1.1">
<g id="surface1">
<path style=" stroke:none;fill-rule:nonzero;fill:rgb(100%,100%,100%);fill-opacity:1;" d="M 15.25 7.554688 L 16 8.589844 L 16.75 7.554688 C 18 5.824219 20.011719 4.800781 22.144531 4.800781 C 25.820312 4.800781 28.800781 7.78125 28.800781 11.453125 L 28.800781 11.585938 C 28.800781 17.195312 21.804688 23.710938 18.15625 26.496094 C 17.535156 26.964844 16.773438 27.199219 16 27.199219 C 15.226562 27.199219 14.460938 26.96875 13.84375 26.496094 C 10.195312 23.710938 3.199219 17.195312 3.199219 11.585938 L 3.199219 11.453125 C 3.199219 7.78125 6.179688 4.800781 9.855469 4.800781 C 11.988281 4.800781 14 5.824219 15.25 7.554688 Z M 15.25 7.554688 "/>
</g>
</svg>
